<svg width="107" height="122" viewBox="0 0 107 122" fill="none" xmlns="http://www.w3.org/2000/svg">
<g clip-path="url(#clip0_25_2)">
<path fill-rule="evenodd" clip-rule="evenodd" d="M58.4344 45.9508C58.4344 51.3473 56.0749 53.7151 58.9198 57.9387C60.8247 60.7673 64.7607 63.0959 68.0877 64.4717C72.5102 66.3002 88.6952 70.3145 88.6952 75.1682C88.6952 85.6393 71.2603 87.7752 70.9564 74.1246H53.2172C54.0842 113.048 116.059 103.702 105.017 68.252C102.628 60.5823 97.5231 57.5518 90.3617 54.7194C86.2801 53.1052 83.5294 52.6101 79.6313 50.8412C64.523 43.9856 75.3714 37.6031 78.2608 37.6031C92.7134 37.6031 84.1175 46.9944 90.7824 46.9944H105.391C105.391 17.0571 72.7612 17.5202 61.2658 28.9581C52.8394 37.3422 58.4346 34.8647 58.4346 45.9508H58.4344Z" fill="#0D2149"/>
<path fill-rule="evenodd" clip-rule="evenodd" d="M0 25.0814V38.6465C14.1044 38.6465 42.9003 34.785 37.8682 49.2598C34.3593 59.3527 19.8259 49.8612 19.8259 57.4289C19.8259 77.7786 18.8723 64.5454 25.519 75.7358L36.4067 94.0657C41.3681 102.625 48.8149 98.1246 58.4346 98.1246L40.6957 67.8637C50.1918 65.6512 59.0767 52.4724 54.841 39.1235C48.2635 18.395 24.0806 21.9507 3.13036 21.9507C0.726211 21.9507 0.000133519 22.6768 0.000133519 25.0814H0Z" fill="#0D2149"/>
<path fill-rule="evenodd" clip-rule="evenodd" d="M0 99.168H17.7392V73.081H0V99.168Z" fill="#0D2149"/>
<path fill-rule="evenodd" clip-rule="evenodd" d="M1.88722 42.0953C-0.716941 48.9155 1.13471 61.7575 1.14071 69.7645L16.6689 69.9214L16.5675 42.0773L1.88709 42.0955L1.88722 42.0953Z" fill="#0D2149"/>
<path fill-rule="evenodd" clip-rule="evenodd" d="M12.5216 17.7767C15.8378 16.8916 13.923 17.4649 16.566 15.5604C18.1145 14.4447 19.3486 13.4793 20.8997 12.5897C36.9317 3.39409 47.1262 1.68998 65.3242 4.62661C81.5524 7.24505 88.846 16.424 93.913 17.7767C91.8528 14.7005 89.4554 13.1158 86.3244 10.7566C78.4346 4.8114 62.95 3.05176e-05 53.2172 3.05176e-05C40.3263 0.000431075 19.2816 7.68193 12.5216 17.7767Z" fill="#0D2149"/>
<path fill-rule="evenodd" clip-rule="evenodd" d="M14.6086 105.429C17.512 109.765 26.2121 114.8 31.4325 116.779C50.8332 124.132 69.5142 121.917 86.4223 110.46C90.28 107.846 92.8372 106.313 93.913 103.342C82.69 109.28 77.155 116.719 55.2968 117.971C32.9299 119.251 18.774 106.541 14.6086 105.429V105.429Z" fill="#0D2149"/>
<path fill-rule="evenodd" clip-rule="evenodd" d="M16.5676 42.0772L16.6689 69.9213L1.14079 69.7644C1.13478 61.7575 -0.716865 48.9154 1.8873 42.0952L16.5677 42.077L16.5676 42.0772ZM0 70.9944H17.7392V40.7336H0V70.9944Z" fill="#0D2149"/>
<path fill-rule="evenodd" clip-rule="evenodd" d="M12.5216 17.7767H11.478L12.3478 18.9941L12.5216 17.7767Z" fill="#0D2149"/>
<path fill-rule="evenodd" clip-rule="evenodd" d="M94.9565 18.8202V19.8637L96.1738 18.9941L94.9565 18.8202Z" fill="#0D2149"/>
<path fill-rule="evenodd" clip-rule="evenodd" d="M94.9565 102.299H96L95.1304 101.081L94.9565 102.299Z" fill="#0D2149"/>
<path fill-rule="evenodd" clip-rule="evenodd" d="M12.5216 103.342V102.299L11.3042 103.168L12.5216 103.342Z" fill="#0D2149"/>
<path fill-rule="evenodd" clip-rule="evenodd" d="M94.9565 18.8202L93.913 17.7767L94.9565 18.8202Z" fill="#0D2149"/>
<path fill-rule="evenodd" clip-rule="evenodd" d="M94.9565 102.299L93.913 103.342L94.9565 102.299Z" fill="#0D2149"/>
<path fill-rule="evenodd" clip-rule="evenodd" d="M13.5652 104.385L12.5216 103.342L13.5652 104.385Z" fill="#0D2149"/>
<path fill-rule="evenodd" clip-rule="evenodd" d="M14.6086 105.429L13.5652 104.385L14.6086 105.429Z" fill="#0D2149"/>
</g>
<defs>
<clipPath id="clip0_25_2">
<rect width="106.334" height="121.036" fill="white"/>
</clipPath>
</defs>
</svg>
