<?xml version="1.0" encoding="UTF-8"?>
<!DOCTYPE svg PUBLIC "-//W3C//DTD SVG 1.1//EN" "http://www.w3.org/Graphics/SVG/1.1/DTD/svg11.dtd">
<!-- Creator: CorelDRAW -->
<svg xmlns="http://www.w3.org/2000/svg" xml:space="preserve" width="28.1343mm" height="32.0241mm" version="1.1" style="shape-rendering:geometricPrecision; text-rendering:geometricPrecision; image-rendering:optimizeQuality; fill-rule:evenodd; clip-rule:evenodd"
viewBox="0 0 7963.97 9065.05"
 xmlns:xlink="http://www.w3.org/1999/xlink"
 xmlns:xodm="http://www.corel.com/coreldraw/odm/2003">
 <defs>
  <style type="text/css">
   <![CDATA[
    .fil0 {fill:#F9EBE0}
   ]]>
  </style>
 </defs>
 <g id="Layer_x0020_1">
  <metadata id="CorelCorpID_0Corel-Layer"/>
  <path class="fil0" d="M4376.48 3441.51c0,404.17 -176.72,581.51 36.35,897.84 142.67,211.85 437.46,386.25 686.64,489.29 331.22,136.95 1543.41,437.6 1543.41,801.12 0,784.24 -1305.8,944.21 -1328.56,-78.16l-1328.59 0c64.94,2915.17 4706.57,2215.19 3879.56,-439.83 -178.93,-574.43 -561.24,-801.4 -1097.6,-1013.53 -305.69,-120.9 -511.71,-157.98 -803.66,-290.46 -1131.54,-513.46 -319.05,-991.48 -102.64,-991.48 1082.43,0 438.64,703.37 937.81,703.37l1094.12 0c0,-2242.17 -2443.83,-2207.49 -3304.78,-1350.84 -631.1,627.93 -212.05,442.38 -212.05,1272.68z"/>
  <path class="fil0" d="M-0 1878.48l0 1015.97c1056.36,0 3213.04,-289.21 2836.16,794.89 -262.8,755.91 -1351.29,45.04 -1351.29,611.83 0,1524.1 -71.42,532.99 426.39,1371.1l815.44 1372.83c371.59,641.04 929.32,303.99 1649.79,303.99l-1328.56 -2266.4c711.21,-165.71 1376.65,-1152.74 1059.42,-2152.52 -492.63,-1552.47 -2303.82,-1286.16 -3872.9,-1286.16 -180.06,0 -234.44,54.38 -234.44,234.47z"/>
  <polygon class="fil0" points="-0,7427.24 1328.59,7427.24 1328.59,5473.44 -0,5473.44 "/>
  <path class="fil0" d="M141.34 3152.75c-195.04,510.8 -56.36,1472.61 -55.91,2072.3l1162.99 11.75 -7.59 -2085.4 -1099.5 1.36z"/>
  <path class="fil0" d="M937.81 1331.39c248.37,-66.29 104.96,-23.35 302.91,-165.99 115.97,-83.56 208.4,-155.86 324.57,-222.49 1200.73,-688.71 1964.25,-816.34 3327.2,-596.4 1215.42,196.11 1761.68,883.57 2141.17,984.88 -154.3,-230.39 -333.85,-349.08 -568.35,-525.77 -590.91,-445.27 -1750.64,-805.62 -2479.58,-805.62 -965.47,0.03 -2541.63,575.34 -3047.92,1331.39z"/>
  <path class="fil0" d="M1094.12 7896.15c217.45,324.77 869.05,701.87 1260.03,850.06 1453.03,550.74 2852.15,384.8 4118.49,-473.24 288.93,-195.77 480.45,-310.61 561.02,-533.11 -840.55,444.73 -1255.1,1001.9 -2892.18,1095.62 -1675.18,95.9 -2735.39,-856.03 -3047.36,-939.34z"/>
  <path class="fil0" d="M1240.84 3151.39l7.59 2085.4 -1162.99 -11.75c-0.45,-599.68 -139.13,-1561.5 55.91,-2072.3l1099.5 -1.36zm-1240.84 2165.77l1328.59 0 0 -2266.4 -1328.59 0 0 2266.4z"/>
  <polygon class="fil0" points="937.81,1331.39 859.65,1331.39 924.79,1422.57 "/>
  <polygon class="fil0" points="7111.82,1409.55 7111.82,1487.7 7202.99,1422.57 "/>
  <polygon class="fil0" points="7111.82,7661.71 7189.97,7661.71 7124.84,7570.53 "/>
  <polygon class="fil0" points="937.81,7739.86 937.81,7661.71 846.63,7726.81 "/>
  <polygon class="fil0" points="7111.82,1409.55 7033.66,1331.39 "/>
  <polygon class="fil0" points="7111.82,7661.71 7033.66,7739.86 "/>
  <polygon class="fil0" points="1015.97,7817.99 937.81,7739.86 "/>
  <polygon class="fil0" points="1094.12,7896.15 1015.97,7817.99 "/>
 </g>
</svg>
